<?xml version="1.0" encoding="UTF-8"?>
<svg width="1052.4" height="744.09" version="1.1" xmlns="http://www.w3.org/2000/svg" xmlns:cc="http://creativecommons.org/ns#" xmlns:dc="http://purl.org/dc/elements/1.1/" xmlns:rdf="http://www.w3.org/1999/02/22-rdf-syntax-ns#"><title>Alphabet in Klein- und Großbuchstaben in der Schriftart Sütterlin</title><metadata><rdf:RDF><cc:Work rdf:about=""><dc:format>image/svg+xml</dc:format><dc:type rdf:resource="http://purl.org/dc/dcmitype/StillImage"/><dc:title>Alphabet in Klein- und Großbuchstaben in der Schriftart Sütterlin</dc:title></cc:Work></rdf:RDF></metadata><g transform="translate(0 313.09)"><path d="m18.299-259.89 13.336-14.929c-6.834 49.365 23.904 26.331 23.948 9.1351 0.04428-17.196-16.992-5.5282-10.437 0.95488 6.5549 6.4831 14.355-7.0379 17.54-11.085l-0.3981 31.848 14.132-15.924" fill="none" stroke="#000" stroke-linecap="round" stroke-linejoin="round" stroke-width="3.8815"/><path d="m100.07-259.73c15.393-4.8435 32.777-30.985 22.293-34.236-12.076-3.3838-10.616 49.563-0.3981 49.563 9.2226 0.99524 13.668-24.682 6.1705-31.052-5.507-5.2416-15.592 20.568 11.545 15.327" fill="none" stroke="#000" stroke-linecap="round" stroke-linejoin="round" stroke-width="3.8815"/><path d="m180.52-259.89 15.725-15.725-1.1943 30.454 15.725-15.526" fill="none" stroke="#000" stroke-linecap="round" stroke-linejoin="round" stroke-width="3.8815"/><path d="m266.71-259.85 8.5591-7.7629-0.59715 22.492c24.881-19.374 9.3323-50.759 1.7914-49.165-7.5408 1.5945 4.5118 18.644 17.516 12.739" fill="none" stroke="#000" stroke-linecap="round" stroke-linejoin="round" stroke-width="3.8815"/><path d="m374.2-260.09-14.331 15.443 1.3934-32.578-15.656 15.581-0.64208 16.932 1.3695-32.09-16.123 16.712" fill="none" stroke="#000" stroke-linecap="round" stroke-linejoin="round" stroke-width="4.0015"/><path d="m419.06-261.49c24.417-16.455 32.99-30.376 23.09-33.042-9.9002-2.6662-6.2368 41.8-9.0241 66.113l1.8354-28.194c-6.9416-11.663-15.259 20.398 10.572-4.6781" fill="none" stroke="#000" stroke-linecap="round" stroke-linejoin="round" stroke-width="3.8815"/><path d="m481.6-258.46c4.6444-5.6887 9.2889-11.377 13.933-17.066-9.1681 35.306 10.216 36.884 18.217 25.733 6.2831-8.7569 2.1887-30.458-5.0793-23.813-7.268 6.645 5.706 17.777 16.521-2.7732 0.81174 5.4606 2.932 54.56-7.1578 48.773-10.09-5.7869 2.7205-16.099 21.29-30.64" fill="none" stroke="#000" stroke-linecap="round" stroke-linejoin="round" stroke-width="4.0183"/><path d="m570.22-261.29c9.4216-7.3648 33.534-30.452 19.308-33.241-14.226-2.7893-0.88096 68.612-13.535 64.094-12.654-4.5181 12.009-26.739 20.104-32.644" fill="none" stroke="#000" stroke-linecap="round" stroke-linejoin="round" stroke-width="3.8815"/><g transform="matrix(1.5526 0 0 1.5526 -7.3782 -315.2)" fill="none" stroke="#000" stroke-linecap="round" stroke-linejoin="round" stroke-width="2.5"><path d="m421.79 36.184 12.179-10.897-1.282 19.872 11.026-9.8717"/><path d="m433.56 20.595 4.1025-7.3076"/></g><g transform="translate(0 -29.62)" fill="none" stroke="#000" stroke-linecap="round" stroke-linejoin="round" stroke-width="3.8815"><path d="m748.97-253.36 7.7629-11.744"/><path d="m732.64-229.08c1.3933-1.3933 17.715-17.317 17.715-17.317-0.79619 17.583 1.6687 53.323-8.9572 46.776-10.626-6.5466 9.8197-23.886 23.09-31.649"/></g><g transform="matrix(1.5526 0 0 1.5526 -7.3782 -315.2)" fill="none" stroke="#000" stroke-linecap="round" stroke-linejoin="round" stroke-width="2.5"><path d="m524.15 35.595c5.9676-4.3336 10.926-10.589 13.846-22.179l-2.4359 32.692"/><path d="m537.02 28.253c12.016-8.6097 11.676 2.7424 5.8483 10.173-3.7638 4.7993-11.449 4.8077-10.794 0.86071s9.6153-5.7264 13.846 6.4102l8.3332-10.513"/></g><path d="m892.04-258.2c27.004-12.174 33.493-36.157 23.726-36.442-9.7666-0.28516-11.561 43.758-6.9667 48.838 4.5941 5.0798 12.036-5.2469 17.476-14.094" fill="none" stroke="#000" stroke-linecap="round" stroke-linejoin="round" stroke-width="4.009"/><path d="m942.48-259.89c4.9762-2.1895 16.72-16.322 16.72-16.322l-1.7914 31.649 28.862-31.649-1.5924 30.653 30.852-30.653-2.5876 31.45 16.521-16.919" fill="none" stroke="#000" stroke-linecap="round" stroke-linejoin="round" stroke-width="3.8815"/><path d="m14.213-113.71 16.123-16.521-1.7914 30.653 29.061-31.45-1.7914 31.052 14.73-15.526" fill="none" stroke="#000" stroke-linecap="round" stroke-linejoin="round" stroke-width="3.8815"/><path d="m90.847-114.11c5.8306-2.4243 11.555-8.874 15.526-16.322-9.2889 16.256 1.9881 31.861 8.5591 31.45 6.571-0.41183 14.799-9.5843 15.299-16.935 0.60543-8.9128-7.6259-16.082-11.517-13.719-3.8908 2.3636-3.3838 17.914 20.9 16.123" fill="none" stroke="#000" stroke-linecap="round" stroke-linejoin="round" stroke-width="3.8815"/><path d="m179.85-115.73 13.336-15.725c-2.3886 15.99 4.4252 53.973-7.5638 47.573-11.989-6.4001 21.726-26.495 20.104-39.412-1.6219-12.916-11.812-6.8618-12.341 0.7962-0.52867 7.658 3.8483 13.602 14.73 6.9667" fill="none" stroke="#000" stroke-linecap="round" stroke-linejoin="round" stroke-width="3.8815"/><path d="m245.11-114.44 12.938-16.322c-6.507 46.23 18.911 29.76 21.985 20.557 3.0737-9.2036-3.3819-22.394-8.8478-18.367-5.4658 4.0265 4.2464 16.455 16.919-1.5924l-2.1895 48.767c1.7125-18.843 6.5316-24.151 15.327-33.241" fill="none" stroke="#000" stroke-linecap="round" stroke-linejoin="round" stroke-width="3.8815"/><path d="m328.54-115.16c8.0168-5.4407 12.653-9.2889 17.317-16.322-0.79618 10.35-1.7999 22.361-2.5961 32.712 2.9857-18.312 21.795-12.92 18.719-4.0486-3.0764 8.8714-16.388 1.1279-7.5638-27.867 3.2511 7.8956 6.1041 13.004 12.739 14.132" fill="none" stroke="#000" stroke-linecap="round" stroke-linejoin="round" stroke-width="3.8815"/><path d="m411.91-117.49c9.7534-7.4975 14.531-18.578 19.109-30.852l-4.379 63.894" fill="none" stroke="#000" stroke-linecap="round" stroke-linejoin="round" stroke-width="3.8815"/><path d="m492.92-115.32c7.8956-8.7581 14-19.905 18.312-32.843-1.7345 18.378-3.5514 37.91-4.7772 49.165 1.7251-7.9619-1.9687-16.849-4.9762-12.54-3.0075 4.3088 11.412 6.9003 17.715-4.5781" fill="none" stroke="#000" stroke-linecap="round" stroke-linejoin="round" stroke-width="3.8815"/><g transform="matrix(1.5526 0 0 1.5526 -10.071 -323.28)" fill="none" stroke="#000" stroke-linecap="round" stroke-linejoin="round" stroke-width="2.5"><path d="m367.06 134.65 9.9999-11.075-1.0256 20.946 19.231-20.684-1.7948 20.813 10.256-9.8717"/><path d="m380.26 112.53c3.8034 6.8802 8.376 7.4785 14.872 1.0256"/></g><path d="m638.43-115.5c5.4406-4.9762 10.881-9.9524 16.322-14.929-1.2606 10.682-2.5213 21.365-3.7819 32.047 2.6842-0.46682 7.5992-11.754 11.616-13.117 5.1175-1.7363 12.608 5.3572 7.692 11.194-4.9155 5.8369-9.862-7.3224-8.0632-17.204 1.1945-6.5618 6.9222-12.986 15.229-11.924 8.3067 1.0618 17.64 20.678-0.40654 30.365" fill="none" stroke="#000" stroke-linecap="round" stroke-linejoin="round" stroke-width="3.8815"/><path d="m697.96-115.18 20.104-15.327-3.3754 31.699 32.834-31.898-3.1848 32.047c5.4406-20.9 27.659-11.357 20.121-1.7322-7.5378 9.6244-16.193-18.206-1.6093-27.13 14.583-8.924 23.62 12.805 7.1657 24.682" fill="none" stroke="#000" stroke-linecap="round" stroke-linejoin="round" stroke-width="3.8815"/><path d="m794.51-114.57c2.7867-0.99524 13.137-15.924 13.137-15.924 5.7724 37.886 32.199 16.673 22.692 3.7819-9.5079-12.891-32.362 24.96-14.331 40.407 18.03 15.447 19.838-21.829 32.445-28.464" fill="none" stroke="#000" stroke-linecap="round" stroke-linejoin="round" stroke-width="3.8815"/><path d="m865.92-115.6 18.91-15.128-4.5781 31.708c12.341-17.914 29.476-9.23 19.109-1.0544-10.368 8.1756-10.851-31.082 5.7724-31.052 16.623 0.0303 12.258 51.06 3.5829 47.373-8.6754-3.6864 1.9241-25.412 9.7534-30.056" fill="none" stroke="#000" stroke-linecap="round" stroke-linejoin="round" stroke-width="3.8815"/><path d="m957.51-114.93c17.499-22.909 23.979-15.385 21.711-7.6419-1.7648 6.0263-9.5956 15.622-11.361 8.4381-1.7653-7.1844 10.128-7.5126 15.417 2.1202 4.6299 8.4317 0.365 34.383-11.038 27.936-11.403-6.4464 7.4975-25.412 17.516-32.047" fill="none" stroke="#000" stroke-linecap="round" stroke-linejoin="round" stroke-width="3.8815"/><path d="m41.758-14.508c-23.541-0.29352-24.562 49.685-3.3462 50.308 21.216 0.62339 13.006-58.366 2.4656-49.956-10.54 8.4104 10.978 18.61 18.844-1.0567-4.6377 66.044 2.4092 54.726 13.561 33.286" fill="none" stroke="#000" stroke-linecap="round" stroke-linejoin="round" stroke-width="3.8815"/><path d="m99.772-1.1298c24.715 23.952 48.017-12.175 29.235-13.209-18.782-1.0333-7.4921 46.101-19.147 49.367-11.654 3.2662-10.875-11.005-4.2956-12.121 7.6759-1.3024 24.307 16.079 28.995 12.028s2.1163-26.311-3.7919-19.686c-5.9082 6.6254 8.2188 10.097 16.027 2.4656" fill="none" stroke="#000" stroke-linecap="round" stroke-linejoin="round" stroke-width="3.8815"/><path d="m212.85-15.374c-4.9313 13.209-10.557-1.6168-16.566 0.96322-6.0086 2.5801-4.1448 40.213-9.158 46.671-5.0133 6.4576-13.675-2.6779-6.5163-8.2775 7.1589-5.5996 23.763 30.472 36.28-5.2835" fill="none" stroke="#000" stroke-linecap="round" stroke-linejoin="round" stroke-width="3.8815"/><path d="m271.16 18.937c14.207-28.179 9.3592 15.767 22.367 15.85 13.008 0.0835 9.5686-57.887-2.4656-48.328-12.034 9.5589-0.29353 42.575 21.486 32.477" fill="none" stroke="#000" stroke-linecap="round" stroke-linejoin="round" stroke-width="3.8815"/><g transform="matrix(1.5526 0 0 1.5526 -7.3782 -354.69)" fill="none" stroke="#000" stroke-linecap="round" stroke-linejoin="round" stroke-width="2.5"><path d="m231.12 227.45c3.403 9.604 21.214 5.2879 19.851-3.5164-1.3629-8.8043-9.3763-4.7414-9.7553 2.7224s-0.45451 22.651-0.56716 28.926 8.0538 7.2597 9.5284 2.0418"/><path d="m236.17 241.82c5.3175 6.3577 10.574 1.8682 13.725-0.22687"/></g><path d="m457.76-7.4483c0.23481-9.9799-14.588-10.154-14.618 0.17611-0.0294 10.33-0.39259 39.937-0.17611 49.665 0.21646 9.728-14.687 8.2866-14.618-0.35224 0.0697-8.6388 9.9687-12.249 14.067-16.829 3.7421-4.1816-7.5538-12.75-10.016-7.6513-2.4624 5.0984 17.201 13.385 23.776 0.88058" fill="none" stroke="#000" stroke-linecap="round" stroke-linejoin="round" stroke-width="3.8815"/><path d="m511.64-14.41c-22.602-0.70446-25.433 49.178-3.3462 49.169 22.087-9e-3 13.17-55.768 3.5223-48.993-9.6477 6.775 10.377 20.881 18.14-0.26959l-0.70448 61.382c-0.0938 8.1725-15.753 3.4434-12.152-4.2268 3.6012-7.6702 12.446-15.968 25.713-24.656" fill="none" stroke="#000" stroke-linecap="round" stroke-linejoin="round" stroke-width="3.8815"/><path d="m575.21-3.1539c15.146 18.434 28.54 3.5809 28.531-5.19-9e-3 -8.771-15.101-8.4199-15.146 2.07l-0.17613 41.513c3.6503-43.411 30.789-28.127 25.713 1.0567-5.0765 29.184-18.156 10.214-12.856 1.7612 5.299-8.4528 14.676-13.033 22.015-19.549" fill="none" stroke="#000" stroke-linecap="round" stroke-linejoin="round" stroke-width="3.8815"/><path d="m672.08-6.7588c7.8665-13.796 16.76-5.5183 16.731-0.70447-0.0293 4.8138-0.97951 17.187-0.52835 29.433 0.45117 12.246-12.587 20.873-20.253 1.9156" fill="none" stroke="#000" stroke-linecap="round" stroke-linejoin="round" stroke-width="3.8815"/><path d="m746.93-4.5127c3.2288-10.978 15.806-13.827 16.027-2.6417 0.22072 11.185-1.2796 37.658-1.4089 49.136-0.12933 11.479-16.891 8.6519-14.265 1.2328 2.6252-7.419 11.037-16.085 22.367-24.128" fill="none" stroke="#000" stroke-linecap="round" stroke-linejoin="round" stroke-width="3.8815"/><path d="m842.14-6.8482c-7.997-13.9-15.516-7.4424-15.85 4.0507-0.33489 11.493 0.13337 18.522-1.4089 29.235-1.5423 10.713-22.537 11.921-19.021-0.35224 3.5161-12.274 35.285-19.706 37.161-9.8625 1.8751 9.843-19.591 20.091-18.492 10.215 1.099-9.8762 8.1543-4.3883 17.436 4.2268 9.2812 8.6151 10.23 3.9198 15.322-11.095" fill="none" stroke="#000" stroke-linecap="round" stroke-linejoin="round" stroke-width="3.8815"/><path d="m893.73 3.7296c9.6277 7.7491 27.751 4.8813 31.877-2.6417 4.1259-7.523-7.4573-23.17-14.265-12.9-6.8081 10.27-3.0566 34.211-6.5163 41.959-3.4597 7.7482-14.464 5.0173-10.567-2.1134 3.8966-7.1307 17.496 7.7357 23.247 6.8794 5.7519-0.85635 11.389-8.0535 13.561-15.333" fill="none" stroke="#000" stroke-linecap="round" stroke-linejoin="round" stroke-width="3.8815"/><path d="m954.22-6.859c7.7099-15.939 14.625-4.2065 16.379 4.4029 1.7539 8.6094 0.19423 24.278-1.772 31.392-1.9662 7.1143-11.371 10.87-11.508-3.3245-0.13772-14.195 4.3705-40.582 18.481-40.439 14.111 0.1433 20.849 22.276 15.053 40.902-5.7962 18.626-12.986 4.8551-11.685-7.1448 1.3016-12 8.8516-28.58 15.383-34.066 3.3614 7.5462 12.271 11.446 18.492 0.0324-16.85 39.308-6.7967 70.899 9.5103 32.901" fill="none" stroke="#000" stroke-linecap="round" stroke-linejoin="round" stroke-width="3.8815"/><path d="m21.666 135.16c25.332-30.371 29.594 41.743 14.007 41.596-15.588-0.14687-5.3904-41.4 10.297-49.262 2.0079 1.8728 10.05 12.232 21.838 0.0326-16.742 36.761-10.189 69.735 13.561 34.051" fill="none" stroke="#000" stroke-linecap="round" stroke-linejoin="round" stroke-width="3.8815"/><path d="m130.77 126.68c-29.062 6.245-18.929 57.888 0.7232 48.842 19.652-9.0463 7.738-52.075-0.54709-48.666-8.2851 3.4087 5.8706 18.964 16.907 0.061" fill="none" stroke="#000" stroke-linecap="round" stroke-linejoin="round" stroke-width="3.8815"/><path d="m177.69 135.55c11.682-17.612 17.469-3.0258 17.259 8.2775l-0.88058 49.136 0.70447-49.136c7.2092-25.975 34.48-21.157 18.316 14.089s-36.467 10.386-23.506 4.9421c12.961-5.4436 17.075 34.184 34.778-1.2437" fill="none" stroke="#000" stroke-linecap="round" stroke-linejoin="round" stroke-width="3.8815"/><path d="m280.23 126.73c-29.062 6.245-19.468 58.427 0.18402 49.381 19.652-9.0463 8.2772-52.614-8e-3 -49.205-8.2851 3.4087 6.575 19.255 17.612 0.35224l-2.0513 64.783 0.52835-14.035 14.618-18.018" fill="none" stroke="#000" stroke-linecap="round" stroke-linejoin="round" stroke-width="3.8815"/><path d="m328.9 134.41c33.521-30.409 27.255 56.623 8.0905 40.561-19.164-16.062 21.411-63.571 32.768-41.265 11.357 22.306-18.441 24.943-11.624 13.033 6.8173-11.91 11.945 12.915 13.209 25.009 1.2634 12.093 10.86-1.2915 17.788-12.152" fill="none" stroke="#000" stroke-linecap="round" stroke-linejoin="round" stroke-width="3.8815"/><path d="m418.62 135.69c26.065-33.564 36.329 42.421 16.12 41.326-20.209-1.0942-2.2069-62.636 18.223-47.314" fill="none" stroke="#000" stroke-linecap="round" stroke-linejoin="round" stroke-width="3.8815"/><path d="m497.98 136.78c23.6-33.814 20.782 28.883 20.253 40.155 1.2915-11.095-3.9847-21.475-8.8058-15.322-4.8211 6.153 11.8 13.561 23.071-2.1134" fill="none" stroke="#000" stroke-linecap="round" stroke-linejoin="round" stroke-width="3.8815"/><path d="m561.29 134.78c5.2835-11.741 14.471-7.7104 14.265 1.2328-0.2052 8.9432-0.0981 19.7 0 32.053s18.76 13.54 22.543-2.1134c3.7834-15.653 0.0571-44.106-7.0446-37.161-7.1019 6.9458 11.917 12.798 16.555-1.585-1.3502 11.448-6.762 78.282 10.743 34.871" fill="none" stroke="#000" stroke-linecap="round" stroke-linejoin="round" stroke-width="3.8815"/><path d="m642.99 134.52c14.218-25.252 18.019 22.184 12.857 42.268 8.5748-21.127 23.87-2.3008 13.385 0.10433-10.485 2.4052-4.4043-48.744 10.071-50.077 11.403-1.0499 19.102 27.047-1.7931 45.746" fill="none" stroke="#000" stroke-linecap="round" stroke-linejoin="round" stroke-width="3.8815"/><path d="m719.52 134.94c27.605-29.794 27.789 41.753 13.935 41.604-13.854-0.14905-2.2636-50.273 11.249-48.824 13.513 1.4487 6.1455 38.793 5.5423 49.169 5.3847-19.916 23.334-6.3939 15.053-0.63266-8.2819 5.7613-11.084-35.652 1.5959-46.247 12.679-10.595 36.984 10.039 4.4029 40.859" fill="none" stroke="#000" stroke-linecap="round" stroke-linejoin="round" stroke-width="3.8815"/><path d="m821.07 135.91c0.88059-11.037 15.674-10.978 15.146-5.1074l0.17611 37.689c0.0388 8.3165-14.59 13.169-15.322-1.0567-0.73228-14.226 37.082-22.406 37.161-31.349 0.0786-8.9428-12.328-13.062-12.328-2.994l-2e-5 39.098c-0.88057 10.165 11.095 2.2895 16.907-10.567" fill="none" stroke="#000" stroke-linecap="round" stroke-linejoin="round" stroke-width="3.8815"/><path d="m894.41 136.99c13.356-22.58 22.812-5.7184 10.308 39.896-0.29352-10.743 22.315-7.8802 14.172-0.26959-8.1431 7.6107-8.3399-49.043 11.448-49.313 19.788-0.26941 9.2736 67.495-1.4089 65.163s-0.58707-19.784 15.498-32.053" fill="none" stroke="#000" stroke-linecap="round" stroke-linejoin="round" stroke-width="3.8815"/><path d="m983.79 136.24c13.324-18.537 22.658-5.7336 21.315 6.7632-1.1291 10.514-13.107 22.566-16.032 16.836-4.7988-9.4008 13.151-8.873 16.287 5.7314 2.2912 10.668-1.127 25.229-6.953 25.793-15.146 1.4676-2.1134-22.249 12.68-31.701" fill="none" stroke="#000" stroke-linecap="round" stroke-linejoin="round" stroke-width="3.8815"/><text x="35.582752" y="-183.84306" fill="#000000" font-family="Tahoma" letter-spacing="0px" stroke="#000000" word-spacing="0px" style="line-height:0%" xml:space="preserve"><tspan x="35.582752" y="-183.84306" font-size="48px" style="line-height:1.25">a</tspan></text><text x="104.01793" y="-183.84306" fill="#000000" font-family="Verdana" letter-spacing="0px" stroke="#000000" word-spacing="0px" style="line-height:0%" xml:space="preserve"><tspan x="104.01793" y="-183.84306" font-size="48px" style="line-height:1.25">b</tspan></text><text x="182.57288" y="-183.84306" fill="#000000" font-family="Verdana" letter-spacing="0px" stroke="#000000" word-spacing="0px" style="line-height:0%" xml:space="preserve"><tspan x="182.57288" y="-183.84306" font-size="48px" style="line-height:1.25">c</tspan></text><text x="266.29523" y="-183.84306" fill="#000000" font-family="Verdana" letter-spacing="0px" stroke="#000000" word-spacing="0px" style="line-height:0%" xml:space="preserve"><tspan x="266.29523" y="-183.84306" font-size="48px" style="line-height:1.25">d</tspan></text><text x="337.83524" y="-183.84306" fill="#000000" font-family="Verdana" letter-spacing="0px" stroke="#000000" word-spacing="0px" style="line-height:0%" xml:space="preserve"><tspan x="337.83524" y="-183.84306" font-size="48px" style="line-height:1.25">e</tspan></text><text x="422.6153" y="-183.84306" fill="#000000" font-family="Verdana" letter-spacing="0px" stroke="#000000" word-spacing="0px" style="line-height:0%" xml:space="preserve"><tspan x="422.6153" y="-183.84306" font-size="48px" style="line-height:1.25">f</tspan></text><text x="496.41473" y="-183.84306" fill="#000000" font-family="Verdana" letter-spacing="0px" stroke="#000000" word-spacing="0px" style="line-height:0%" xml:space="preserve"><tspan x="496.41473" y="-183.84306" font-size="48px" style="line-height:1.25">g</tspan></text><text x="567.87683" y="-183.84306" fill="#000000" font-family="Verdana" letter-spacing="0px" stroke="#000000" word-spacing="0px" style="line-height:0%" xml:space="preserve"><tspan x="567.87683" y="-183.84306" font-size="48px" style="line-height:1.25">h</tspan></text><text x="657.9231" y="-183.84306" fill="#000000" font-family="Verdana" letter-spacing="0px" stroke="#000000" word-spacing="0px" style="line-height:0%" xml:space="preserve"><tspan x="657.9231" y="-183.84306" font-size="48px" style="line-height:1.25">i</tspan></text><text x="743.04761" y="-183.84306" fill="#000000" font-family="Verdana" letter-spacing="0px" stroke="#000000" word-spacing="0px" style="line-height:0%" xml:space="preserve"><tspan x="743.04761" y="-183.84306" font-size="48px" style="line-height:1.25">j</tspan></text><text x="813.46631" y="-183.84306" fill="#000000" font-family="Verdana" letter-spacing="0px" stroke="#000000" word-spacing="0px" style="line-height:0%" xml:space="preserve"><tspan x="813.46631" y="-183.84306" font-size="48px" style="line-height:1.25">k</tspan></text><text x="902.57312" y="-183.84306" fill="#000000" font-family="Verdana" letter-spacing="0px" stroke="#000000" word-spacing="0px" style="line-height:0%" xml:space="preserve"><tspan x="902.57312" y="-183.84306" font-size="48px" style="line-height:1.25">l</tspan></text><text x="962.53436" y="-183.84306" fill="#000000" font-family="Verdana" letter-spacing="0px" stroke="#000000" word-spacing="0px" style="line-height:0%" xml:space="preserve"><tspan x="962.53436" y="-183.84306" font-size="48px" style="line-height:1.25">m</tspan></text><text x="27.09705" y="-39.332565" fill="#000000" font-family="Verdana" letter-spacing="0px" stroke="#000000" word-spacing="0px" style="line-height:0%" xml:space="preserve"><tspan x="27.09705" y="-39.332565" font-size="48px" style="line-height:1.25">n</tspan></text><text x="100.66354" y="-39.332565" fill="#000000" font-family="Verdana" letter-spacing="0px" stroke="#000000" word-spacing="0px" style="line-height:0%" xml:space="preserve"><tspan x="100.66354" y="-39.332565" font-size="48px" style="line-height:1.25">o</tspan></text><text x="178.13187" y="-39.332565" fill="#000000" font-family="Verdana" letter-spacing="0px" stroke="#000000" word-spacing="0px" style="line-height:0%" xml:space="preserve"><tspan x="178.13187" y="-39.332565" font-size="48px" style="line-height:1.25">p</tspan></text><text x="259.12393" y="-39.332565" fill="#000000" font-family="Verdana" letter-spacing="0px" stroke="#000000" word-spacing="0px" style="line-height:0%" xml:space="preserve"><tspan x="259.12393" y="-39.332565" font-size="48px" style="line-height:1.25">q</tspan></text><text x="335.34769" y="-39.332565" fill="#000000" font-family="Verdana" letter-spacing="0px" stroke="#000000" word-spacing="0px" style="line-height:0%" xml:space="preserve"><tspan x="335.34769" y="-39.332565" font-size="48px" style="line-height:1.25">r</tspan></text><text x="408.65701" y="-39.332565" fill="#000000" font-family="Verdana" letter-spacing="0px" stroke="#000000" word-spacing="0px" style="line-height:0%" xml:space="preserve"><tspan x="408.65701" y="-39.332565" font-size="48px" style="line-height:1.25">s</tspan></text><text x="496.36969" y="-39.332565" fill="#000000" font-family="Verdana" letter-spacing="0px" stroke="#000000" word-spacing="0px" style="line-height:0%" xml:space="preserve"><tspan x="496.36969" y="-39.332565" font-size="48px" style="line-height:1.25">t</tspan></text><text x="573.19116" y="-39.332565" fill="#000000" font-family="Verdana" letter-spacing="0px" stroke="#000000" word-spacing="0px" style="line-height:0%" xml:space="preserve"><tspan x="573.19116" y="-39.332565" font-size="48px" style="line-height:1.25">u</tspan></text><text x="648.70557" y="-39.332565" fill="#000000" font-family="Verdana" letter-spacing="0px" stroke="#000000" word-spacing="0px" style="line-height:0%" xml:space="preserve"><tspan x="648.70557" y="-39.332565" font-size="48px" style="line-height:1.25">v</tspan></text><text x="718.75244" y="-39.332565" fill="#000000" font-family="Verdana" letter-spacing="0px" stroke="#000000" word-spacing="0px" style="line-height:0%" xml:space="preserve"><tspan x="718.75244" y="-39.332565" font-size="48px" style="line-height:1.25">w</tspan></text><text x="807.27521" y="-39.332565" fill="#000000" font-family="Verdana" letter-spacing="0px" stroke="#000000" word-spacing="0px" style="line-height:0%" xml:space="preserve"><tspan x="807.27521" y="-39.332565" font-size="48px" style="line-height:1.25">x</tspan></text><text x="877.99457" y="-39.332565" fill="#000000" font-family="Verdana" letter-spacing="0px" stroke="#000000" word-spacing="0px" style="line-height:0%" xml:space="preserve"><tspan x="877.99457" y="-39.332565" font-size="48px" style="line-height:1.25">y</tspan></text><text x="960.88379" y="-39.332565" fill="#000000" font-family="Verdana" letter-spacing="0px" stroke="#000000" word-spacing="0px" style="line-height:0%" xml:space="preserve"><tspan x="960.88379" y="-39.332565" font-size="48px" style="line-height:1.25">z</tspan></text><text x="31.866062" y="100.69004" fill="#000000" font-family="Verdana" letter-spacing="0px" stroke="#000000" word-spacing="0px" style="line-height:0%" xml:space="preserve"><tspan x="31.866062" y="100.69004" font-size="48px" style="line-height:1.25">A</tspan></text><text x="105.43627" y="100.69004" fill="#000000" font-family="Verdana" letter-spacing="0px" stroke="#000000" word-spacing="0px" style="line-height:0%" xml:space="preserve"><tspan x="105.43627" y="100.69004" font-size="48px" style="line-height:1.25">B</tspan></text><text x="180.22081" y="100.69004" fill="#000000" font-family="Verdana" letter-spacing="0px" stroke="#000000" word-spacing="0px" style="line-height:0%" xml:space="preserve"><tspan x="180.22081" y="100.69004" font-size="48px" style="line-height:1.25">C</tspan></text><text x="272.41931" y="100.69004" fill="#000000" font-family="Verdana" letter-spacing="0px" stroke="#000000" word-spacing="0px" style="line-height:0%" xml:space="preserve"><tspan x="272.41931" y="100.69004" font-size="48px" style="line-height:1.25">D</tspan></text><text x="350.7486" y="100.69004" fill="#000000" font-family="Verdana" letter-spacing="0px" stroke="#000000" word-spacing="0px" style="line-height:0%" xml:space="preserve"><tspan x="350.7486" y="100.69004" font-size="48px" style="line-height:1.25">E</tspan></text><text x="427.21957" y="100.69004" fill="#000000" font-family="Verdana" letter-spacing="0px" stroke="#000000" word-spacing="0px" style="line-height:0%" xml:space="preserve"><tspan x="427.21957" y="100.69004" font-size="48px" style="line-height:1.25">F</tspan></text><text x="499.72144" y="100.69004" fill="#000000" font-family="Verdana" letter-spacing="0px" stroke="#000000" word-spacing="0px" style="line-height:0%" xml:space="preserve"><tspan x="499.72144" y="100.69004" font-size="48px" style="line-height:1.25">G</tspan></text><text x="581.21954" y="100.69004" fill="#000000" font-family="Verdana" letter-spacing="0px" stroke="#000000" word-spacing="0px" style="line-height:0%" xml:space="preserve"><tspan x="581.21954" y="100.69004" font-size="48px" style="line-height:1.25">H</tspan></text><text x="668.3175" y="100.69004" fill="#000000" font-family="Verdana" letter-spacing="0px" stroke="#000000" word-spacing="0px" style="line-height:0%" xml:space="preserve"><tspan x="668.3175" y="100.69004" font-size="48px" style="line-height:1.25">I</tspan></text><text x="749.02997" y="100.69004" fill="#000000" font-family="Verdana" letter-spacing="0px" stroke="#000000" word-spacing="0px" style="line-height:0%" xml:space="preserve"><tspan x="749.02997" y="100.69004" font-size="48px" style="line-height:1.25">J</tspan></text><text x="812.59686" y="100.69004" fill="#000000" font-family="Verdana" letter-spacing="0px" stroke="#000000" word-spacing="0px" style="line-height:0%" xml:space="preserve"><tspan x="812.59686" y="100.69004" font-size="48px" style="line-height:1.25">K</tspan></text><text x="896.52081" y="100.69004" fill="#000000" font-family="Verdana" letter-spacing="0px" stroke="#000000" word-spacing="0px" style="line-height:0%" xml:space="preserve"><tspan x="896.52081" y="100.69004" font-size="48px" style="line-height:1.25">L</tspan></text><text x="968.15729" y="100.69004" fill="#000000" font-family="Verdana" letter-spacing="0px" stroke="#000000" word-spacing="0px" style="line-height:0%" xml:space="preserve"><tspan x="968.15729" y="100.69004" font-size="48px" style="line-height:1.25">M</tspan></text><text x="33.518131" y="237.12231" fill="#000000" font-family="Verdana" letter-spacing="0px" stroke="#000000" word-spacing="0px" style="line-height:0%" xml:space="preserve"><tspan x="33.518131" y="237.12231" font-size="48px" style="line-height:1.25">N</tspan></text><text x="111.34023" y="237.12231" fill="#000000" font-family="Verdana" letter-spacing="0px" stroke="#000000" word-spacing="0px" style="line-height:0%" xml:space="preserve"><tspan x="111.34023" y="237.12231" font-size="48px" style="line-height:1.25">O</tspan></text><text x="184.92853" y="237.12231" fill="#000000" font-family="Verdana" letter-spacing="0px" stroke="#000000" word-spacing="0px" style="line-height:0%" xml:space="preserve"><tspan x="184.92853" y="237.12231" font-size="48px" style="line-height:1.25">P</tspan></text><text x="267.2348" y="237.12231" fill="#000000" font-family="Verdana" letter-spacing="0px" stroke="#000000" word-spacing="0px" style="line-height:0%" xml:space="preserve"><tspan x="267.2348" y="237.12231" font-size="48px" style="line-height:1.25">Q</tspan></text><text x="339.8869" y="237.12231" fill="#000000" font-family="Verdana" letter-spacing="0px" stroke="#000000" word-spacing="0px" style="line-height:0%" xml:space="preserve"><tspan x="339.8869" y="237.12231" font-size="48px" style="line-height:1.25">R</tspan></text><text x="419.19946" y="237.12231" fill="#000000" font-family="Verdana" letter-spacing="0px" stroke="#000000" word-spacing="0px" style="line-height:0%" xml:space="preserve"><tspan x="419.19946" y="237.12231" font-size="48px" style="line-height:1.25">S</tspan></text><text x="500.44891" y="237.12231" fill="#000000" font-family="Verdana" letter-spacing="0px" stroke="#000000" word-spacing="0px" style="line-height:0%" xml:space="preserve"><tspan x="500.44891" y="237.12231" font-size="48px" style="line-height:1.25">T</tspan></text><text x="572.25146" y="237.12231" fill="#000000" font-family="Verdana" letter-spacing="0px" stroke="#000000" word-spacing="0px" style="line-height:0%" xml:space="preserve"><tspan x="572.25146" y="237.12231" font-size="48px" style="line-height:1.25">U</tspan></text><text x="650.40094" y="237.12231" fill="#000000" font-family="Verdana" letter-spacing="0px" stroke="#000000" word-spacing="0px" style="line-height:0%" xml:space="preserve"><tspan x="650.40094" y="237.12231" font-size="48px" style="line-height:1.25">V</tspan></text><text x="729.81726" y="237.12231" fill="#000000" font-family="Verdana" letter-spacing="0px" stroke="#000000" word-spacing="0px" style="line-height:0%" xml:space="preserve"><tspan x="729.81726" y="237.12231" font-size="48px" style="line-height:1.25">W</tspan></text><text x="825.4809" y="237.12231" fill="#000000" font-family="Verdana" letter-spacing="0px" stroke="#000000" word-spacing="0px" style="line-height:0%" xml:space="preserve"><tspan x="825.4809" y="237.12231" font-size="48px" style="line-height:1.25">X</tspan></text><text x="904.64862" y="237.12231" fill="#000000" font-family="Verdana" letter-spacing="0px" stroke="#000000" word-spacing="0px" style="line-height:0%" xml:space="preserve"><tspan x="904.64862" y="237.12231" font-size="48px" style="line-height:1.25">Y</tspan></text><text x="980.8689" y="237.12231" fill="#000000" font-family="Verdana" letter-spacing="0px" stroke="#000000" word-spacing="0px" style="line-height:0%" xml:space="preserve"><tspan x="980.8689" y="237.12231" font-size="48px" style="line-height:1.25">Z</tspan></text><text x="771.99585" y="400.14603" fill="#000000" font-family="Verdana" letter-spacing="0px" stroke="#000000" word-spacing="0px" style="line-height:0%" xml:space="preserve"><tspan x="771.99585" y="400.14603" font-size="48px" style="line-height:1.25">Schluss-s</tspan></text><text x="489.20999" y="400.14603" fill="#000000" font-family="Verdana" letter-spacing="0px" stroke="#000000" word-spacing="0px" style="line-height:0%" xml:space="preserve"><tspan x="489.20999" y="400.14603" font-size="48px" style="line-height:1.25">ß</tspan></text><text x="548.4469" y="400.14603" fill="#000000" font-family="Verdana" letter-spacing="0px" stroke="#000000" word-spacing="0px" style="line-height:0%" xml:space="preserve"><tspan x="548.4469" y="400.14603" font-size="48px" style="line-height:1.25">mm</tspan></text><text x="669.52411" y="400.14603" fill="#000000" font-family="Verdana" letter-spacing="0px" stroke="#000000" word-spacing="0px" style="line-height:0%" xml:space="preserve"><tspan x="669.52411" y="400.14603" font-size="48px" style="line-height:1.25">nn</tspan></text><path d="m771.38 311.72c23.898-31.518 30.901 13.514 19.754 16.647-11.147 3.1332-14.775-21.873-10.928-36.91 3.7881-14.808 17.831-19.954 18.031-2.3765" fill="none" stroke="#000" stroke-linecap="round" stroke-linejoin="round" stroke-width="3.881"/><g transform="translate(379.48 12.566)" fill="none" stroke="#000" stroke-linecap="round" stroke-linejoin="round" stroke-width="3.8815"><path d="m104.7 300.22c9.2437-6.8145 16.458-18.462 21.497-34.435l-6.4454 69.402"/><path d="m126.68 275.73c13.995-7.3744 21.014 1.1504 19.512 10.912-1.4398 9.3594-18.662 15.215-18.09 7.9951 0.57217-7.2198 18.787-2.0323 17.764 10.473-1.0229 12.505-16.646 13.017-18.907 5.6946"/></g><g transform="translate(393.25 12.566)" fill="none" stroke="#000" stroke-linecap="round" stroke-linejoin="round" stroke-width="3.8815"><path d="m278.58 300.97 16.123-16.521-1.7914 30.653 29.061-31.45-1.7914 31.052 14.73-15.526"/><path d="m297.77 273.42 22.054 0.0114"/></g><g transform="translate(382.37 12.566)" fill="none" stroke="#000" stroke-linecap="round" stroke-linejoin="round" stroke-width="3.8815"><path d="m169.37 300.32c4.9762-2.1895 16.72-16.322 16.72-16.322l-1.7914 31.649 28.862-31.649-1.5924 30.653 30.852-30.653-2.5876 31.45 16.521-16.919"/><path d="m191.07 272.74 48.023 0.0114"/></g><text x="41.17992" y="400.14603" fill="#000000" font-family="Tahoma" letter-spacing="0px" stroke="#000000" word-spacing="0px" style="line-height:0%" xml:space="preserve"><tspan x="41.17992" y="400.14603" font-size="48px" style="line-height:1.25">ä</tspan></text><text x="118.27556" y="400.14603" fill="#000000" font-family="Verdana" letter-spacing="0px" stroke="#000000" word-spacing="0px" style="line-height:0%" xml:space="preserve"><tspan x="118.27556" y="400.14603" font-size="48px" style="line-height:1.25">ö</tspan></text><text x="187.75951" y="400.14603" fill="#000000" font-family="Verdana" letter-spacing="0px" stroke="#000000" word-spacing="0px" style="line-height:0%" xml:space="preserve"><tspan x="187.75951" y="400.14603" font-size="48px" style="line-height:1.25">ü</tspan></text><text x="265.43411" y="400.14603" fill="#000000" font-family="Verdana" letter-spacing="0px" stroke="#000000" word-spacing="0px" style="line-height:0%" xml:space="preserve"><tspan x="265.43411" y="400.14603" font-size="48px" style="line-height:1.25">Ä</tspan></text><text x="329.35901" y="400.14603" fill="#000000" font-family="Verdana" letter-spacing="0px" stroke="#000000" word-spacing="0px" style="line-height:0%" xml:space="preserve"><tspan x="329.35901" y="400.14603" font-size="48px" style="line-height:1.25">Ö</tspan></text><text x="399.80869" y="400.14603" fill="#000000" font-family="Verdana" letter-spacing="0px" stroke="#000000" word-spacing="0px" style="line-height:0%" xml:space="preserve"><tspan x="399.80869" y="400.14603" font-size="48px" style="line-height:1.25">Ü</tspan></text><g fill="none" stroke="#000" stroke-linecap="round" stroke-linejoin="round"><path d="m23.896 312.68 13.336-14.929c-6.834 49.365 23.904 26.331 23.948 9.1351 0.04428-17.196-16.992-5.5282-10.437 0.95488 6.5549 6.4831 14.355-7.0379 17.54-11.085l-0.3981 31.848 14.132-15.924" stroke-width="3.8815"/><path d="m61.471 283.72-4.7133 5.0788 0.45824-10.714-7.7085 4.6977-0.21116 5.5687 0.45039-10.554-5.3025 5.4962" stroke-width="3.881"/></g><g fill="none" stroke="#000" stroke-linecap="round" stroke-linejoin="round"><path d="m108.46 313.52c5.8306-2.4243 11.555-8.874 15.526-16.322-9.2889 16.256 1.9881 31.861 8.5591 31.45 6.571-0.41182 14.799-9.5843 15.299-16.935 0.60543-8.9128-7.6259-16.082-11.517-13.719-3.8908 2.3636-3.3838 17.914 20.9 16.123" stroke-width="3.8815"/><path d="m141.36 284.44-4.7133 5.0788 0.45824-10.714-7.7085 4.6977-0.21116 5.5687 0.45039-10.554-5.3025 5.4962" stroke-width="3.881"/></g><g fill="none" stroke="#000" stroke-linecap="round" stroke-linejoin="round"><path d="m174.39 314.39 15.526-17.194-1.5924 32.521 29.857-32.114-2.7867 32.313 15.924-15.327" stroke-width="3.8815"/><path d="m211.37 284.65-4.7133 5.0788 0.45824-10.714-7.7085 4.6977-0.21116 5.5687 0.45039-10.554-5.3025 5.4962" stroke-width="3.881"/></g><g fill="none" stroke="#000" stroke-linecap="round" stroke-linejoin="round"><path d="m275.33 277.78c-23.541-0.29352-24.562 49.685-3.3462 50.308 21.216 0.62339 13.006-58.366 2.4656-49.956-10.54 8.4104 10.978 18.61 18.844-1.0567-4.6377 66.044 2.4092 54.726 13.561 33.286" stroke-width="3.8815"/><path d="m290.35 265.46-4.7133 5.0788 0.45824-10.714-7.7085 4.6977-0.21117 5.5687 0.4504-10.554-5.3025 5.4962" stroke-width="3.881"/></g><g fill="none" stroke="#000" stroke-linecap="round" stroke-linejoin="round"><path d="m348.78 277.66c-29.062 6.245-18.929 57.888 0.7232 48.842 19.652-9.0463 7.738-52.075-0.54709-48.666-8.2851 3.4087 5.8706 18.964 16.907 0.061" stroke-width="3.8815"/><path d="m356.77 265.46-4.7133 5.0788 0.45824-10.714-7.7085 4.6977-0.21117 5.5687 0.45039-10.554-5.3025 5.4962" stroke-width="3.881"/></g><g fill="none" stroke="#000" stroke-linecap="round" stroke-linejoin="round"><path d="m388.84 286.39c5.2835-11.741 14.471-7.7104 14.265 1.2328-0.2052 8.9432-0.0981 19.7 0 32.053 0.0981 12.353 18.76 13.54 22.543-2.1134s0.0571-44.106-7.0446-37.161c-7.1019 6.9458 11.917 12.798 16.555-1.585-1.3502 11.448-6.762 78.282 10.743 34.871" stroke-width="3.8815"/><path d="m425.89 265.46-4.7133 5.0788 0.45825-10.714-7.7085 4.6977-0.21117 5.5687 0.45039-10.554-5.3025 5.4962" stroke-width="3.881"/></g></g></svg>
